# xmcd
#
# Track frame offsets: 
#        150
#        13369
#        29420
#        52742
#        74355
#        91279
#        113471
#        124443
#        147418
#        162475
#        179576
#        191259
#        216491
#        239880
#        252424
#        265425
#        281889
#        301032
#        314799
#        337342
#
# Disc length: 4623 seconds
#
# Revision: 0
# Processed by: cddbd v1.5.2PL0 Copyright (c) Steve Scherf et al.
# Submitted via: ExactAudioCopy v1.0b1
#
DISCID=47120d14
DTITLE=Andersen, Eric - The Best Of Eric Andersen
DYEAR=1970
DGENRE=Country
TTITLE0=My Land Is A Good Land
TTITLE1=Hey Babe, Have You Been Cheatin'
TTITLE2=Thirsty Boots
TTITLE3=The Hustler
TTITLE4=Close The Door Lightly
TTITLE5=Song To J.C.B.
TTITLE6=Dusty Box Car Wall
TTITLE7=Looking Glass
TTITLE8=Bumblebee
TTITLE9=Violets Of Sawn
TTITLE10=Lovesick Blues
TTITLE11=Eyes Gently Rolling
TTITLE12=Just A Country Dream
TTITLE13=Devon, You Look Like Heaven
TTITLE14=All I Remember Is You
TTITLE15=Rollin' Home
TTITLE16=Miss Lonely Are You Blue
TTITLE17=Broken Hearted Mama
TTITLE18=A Woman Is Prism
TTITLE19=Hello, Sun
EXTD=
EXTT0=
EXTT1=
EXTT2=
EXTT3=
EXTT4=
EXTT5=
EXTT6=
EXTT7=
EXTT8=
EXTT9=
EXTT10=
EXTT11=
EXTT12=
EXTT13=
EXTT14=
EXTT15=
EXTT16=
EXTT17=
EXTT18=
EXTT19=
PLAYORDER=
